<?xml version="1.0" standalone="no"?><!DOCTYPE svg PUBLIC "-//W3C//DTD SVG 1.1//EN" "http://www.w3.org/Graphics/SVG/1.1/DTD/svg11.dtd"><svg class="icon" width="200px" height="200.00px" viewBox="0 0 1024 1024" version="1.1" xmlns="http://www.w3.org/2000/svg"><path fill="#FFD700" d="M529.677 656.046c5.062-6.342 18.404-18.403 40.022-36.21 83.854-71.138 125.127-120.063 123.876-146.745-2.56-27.931-16.528-42.552-41.927-43.833-25.43 2.56-39.397 19.713-41.927 51.456h-74.326c1.25-64.796 40.021-98.445 116.253-101.006 74.95 3.812 113.692 35.584 116.253 95.289 2.53 40.677-34.305 90.852-110.536 150.556-26.681 22.87-44.488 39.397-53.362 49.55h165.804v49.552h-240.13v-68.609zM401.744 271.704L214.91 490.188V271.704H101.87v0.211H64.147v37.597h37.722V724.89h113.042l375.392-452.975z" /></svg>