<?xml version="1.0" standalone="no"?><!DOCTYPE svg PUBLIC "-//W3C//DTD SVG 1.1//EN" "http://www.w3.org/Graphics/SVG/1.1/DTD/svg11.dtd"><svg class="icon" width="200px" height="200.00px" viewBox="0 0 1024 1024" version="1.1" xmlns="http://www.w3.org/2000/svg"><path fill="#FFD700" d="M607.814 640.8c5.062 27.963 17.152 41.928 36.21 41.928 38.116 0 55.268-35.556 51.456-106.724-19.057 15.247-41.302 22.245-66.702 20.964-60.985-6.342-94.664-40.646-101.006-102.912 5.062-71.138 45.084-109.254 120.065-114.346 82.573-1.251 123.221 48.925 121.97 150.556 1.251 72.42-7.623 123.251-26.681 152.463-20.339 30.492-52.738 45.739-97.196 45.739-73.7 1.251-111.19-27.932-112.44-87.666h74.324z m43.834-93.383c27.931-1.251 42.552-20.308 43.833-57.173-1.28-39.366-15.9-59.704-43.833-60.985-31.773 0-47.645 20.338-47.645 60.985 0 38.116 15.872 57.173 47.645 57.173zM401.744 271.704L214.91 490.188V271.704H101.87v0.211H64.147v37.597h37.722V724.89h113.042l375.392-452.975z" /></svg>