<?xml version="1.0" standalone="no"?><!DOCTYPE svg PUBLIC "-//W3C//DTD SVG 1.1//EN" "http://www.w3.org/Graphics/SVG/1.1/DTD/svg11.dtd"><svg class="icon" width="200px" height="200.00px" viewBox="0 0 1024 1024" version="1.1" xmlns="http://www.w3.org/2000/svg"><path fill="#FFD700" d="M697.387 469.28c0-15.246-3.187-26.025-9.53-32.398-7.622-5.062-17.152-7.623-28.586-7.623-30.493 1.28-46.395 34.96-47.645 101.006 15.247-16.496 36.21-24.775 62.891-24.775 66.048 3.812 101.007 38.77 104.818 104.818 0 33.053-9.529 60.36-28.586 81.95-25.43 22.869-57.828 34.928-97.196 36.209-78.792 0-118.158-47.645-118.158-142.935C531.583 447.066 576.04 378.458 668.8 379.71c66.048 3.812 99.725 33.679 101.006 89.571h-72.42z m-40.022 85.76c-27.962 1.28-43.208 22.245-45.739 62.891 2.531 41.927 17.777 63.546 45.74 64.797 29.21-1.251 44.457-22.87 45.738-64.797-1.28-40.646-16.527-61.61-45.739-62.891zM401.744 271.704L214.91 490.188V271.704H101.87v0.211H64.147v37.597h37.722V724.89h113.042l375.392-452.975z" /></svg>