<?xml version="1.0" standalone="no"?><!DOCTYPE svg PUBLIC "-//W3C//DTD SVG 1.1//EN" "http://www.w3.org/Graphics/SVG/1.1/DTD/svg11.dtd"><svg class="icon" width="200px" height="200.00px" viewBox="0 0 1024 1024" version="1.1" xmlns="http://www.w3.org/2000/svg"><path fill="#FFD700" d="M602.097 545.51c-43.208-12.685-64.797-38.114-64.797-76.23 5.062-53.362 43.834-83.2 116.253-89.572 76.232 3.812 115.598 33.679 118.159 89.571-3.812 40.677-26.056 66.078-66.702 76.232 45.739 12.715 69.233 41.302 70.514 85.76-5.093 60.986-45.74 93.384-121.97 97.196-78.793-2.561-119.44-34.93-121.971-97.196 2.53-41.927 26.026-69.858 70.514-83.854v-1.906z m55.268-26.68c29.212-2.53 44.458-17.776 45.74-45.739-1.282-27.931-18.434-42.552-51.457-43.833-29.242 2.56-44.488 17.152-45.74 43.833 1.252 29.242 18.404 44.49 51.457 45.74z m-1.906 163.898c29.211-2.531 45.083-20.309 47.644-53.362-2.56-34.304-19.058-52.081-49.55-53.362-30.493 2.56-46.395 20.339-47.645 53.362 1.252 34.304 17.777 52.11 49.55 53.362zM401.744 271.704L214.91 490.188V271.704H101.87v0.211H64.147v37.597h37.722V724.89h113.042l375.392-452.975z" /></svg>