<?xml version="1.0" standalone="no"?><!DOCTYPE svg PUBLIC "-//W3C//DTD SVG 1.1//EN" "http://www.w3.org/Graphics/SVG/1.1/DTD/svg11.dtd"><svg class="icon" width="200px" height="198.07px" viewBox="0 0 1034 1024" version="1.1" xmlns="http://www.w3.org/2000/svg"><path fill="#FFD700" d="M563.982 436.882c30.492-13.966 59.079-30.493 85.76-49.55h68.609v337.323h-74.326V459.75c-24.15 17.808-50.832 32.399-80.043 43.834v-66.703z m310.642 194.39c1.252 30.492 15.247 47.644 41.927 51.456 26.682-2.531 41.273-19.683 43.834-51.457-1.28-38.116-28.587-56.518-81.949-55.268V528.36c55.893-1.25 83.2-19.058 81.949-53.362-1.28-29.212-15.247-44.458-41.927-45.74-22.87 3.813-36.21 19.058-40.022 45.74H804.11c3.812-60.986 41.927-92.728 114.348-95.29 71.138 6.374 109.255 34.96 114.347 85.76-1.28 45.74-22.87 73.7-64.796 83.855 44.458 12.715 66.702 43.208 66.702 91.478-6.373 53.361-46.394 82.604-120.065 87.666-76.231 0-114.348-32.4-114.348-97.196h74.326z m-472.88-359.568L214.91 490.188V271.704H101.87v0.211H64.147v37.597h37.722V724.89h113.042l375.392-452.975z" /></svg>