<?xml version="1.0" standalone="no"?><!DOCTYPE svg PUBLIC "-//W3C//DTD SVG 1.1//EN" "http://www.w3.org/Graphics/SVG/1.1/DTD/svg11.dtd"><svg class="icon" width="200px" height="196.92px" viewBox="0 0 1040 1024" version="1.1" xmlns="http://www.w3.org/2000/svg"><path fill="#FFD700" d="M563.982 436.882c30.492-13.966 59.079-30.493 85.76-49.55h68.609v337.323h-74.326V459.75c-24.15 17.808-50.832 32.399-80.043 43.834v-66.703zM876.53 640.8c3.812 26.681 17.777 40.677 41.927 41.927 30.492-1.251 46.99-25.4 49.55-72.42-2.56-38.116-18.432-58.425-47.644-60.985-20.338 1.28-34.304 13.995-41.927 38.116l-72.42-1.906 9.53-198.2h205.825v47.644H878.437l-3.812 89.572c16.497-16.497 37.461-24.775 62.892-24.775 67.327 2.56 101.631 41.301 102.912 116.253-6.372 69.89-47.644 107.379-123.876 112.44-72.419-1.28-109.91-30.492-112.44-87.665h72.418zM401.744 271.704L214.91 490.188V271.704H101.87v0.211H64.147v37.597h37.722V724.89h113.042l375.392-452.975z" /></svg>