<?xml version="1.0" standalone="no"?><!DOCTYPE svg PUBLIC "-//W3C//DTD SVG 1.1//EN" "http://www.w3.org/Graphics/SVG/1.1/DTD/svg11.dtd"><svg class="icon" width="200px" height="196.17px" viewBox="0 0 1044 1024" version="1.1" xmlns="http://www.w3.org/2000/svg"><path fill="#FFD700" d="M563.982 436.882c30.492-13.966 59.079-30.493 85.76-49.55h68.609v337.323h-74.326V459.75c-24.15 17.808-50.832 32.399-80.043 43.834v-66.703z m358.287 291.585c-74.98-1.281-113.722-58.425-116.253-171.522 2.53-116.877 41.273-175.956 116.253-177.237 78.762 1.28 119.41 60.36 121.97 177.237-1.28 113.097-41.927 170.24-121.97 171.522z m1.906-299.208c-29.242 1.28-43.833 43.833-43.833 127.686 0 82.604 14.591 124.532 43.833 125.783 29.212-1.251 43.834-43.179 43.834-125.783-0.001-83.854-14.622-126.405-43.834-127.686zM401.744 271.704L214.91 490.188V271.704H101.87v0.211H64.147v37.597h37.722V724.89h113.042l375.392-452.975z" /></svg>