<?xml version="1.0" standalone="no"?><!DOCTYPE svg PUBLIC "-//W3C//DTD SVG 1.1//EN" "http://www.w3.org/Graphics/SVG/1.1/DTD/svg11.dtd"><svg class="icon" width="200px" height="200.00px" viewBox="0 0 1024 1024" version="1.1" xmlns="http://www.w3.org/2000/svg"><path fill="#FFD700" d="M605.909 640.8c3.812 26.682 17.776 40.678 41.927 41.928 30.492-1.251 46.99-25.4 49.55-72.42-2.56-38.116-18.432-58.425-47.644-60.985-20.338 1.28-34.304 13.995-41.927 38.116l-72.42-1.906 9.53-198.2H750.75v47.644H607.815l-3.812 89.572c16.497-16.497 37.461-24.775 62.891-24.775 67.328 2.56 101.632 41.301 102.913 116.253-6.373 69.89-47.644 107.379-123.876 112.44-72.419-1.28-109.91-30.492-112.44-87.665h72.418zM401.744 271.705L214.91 490.188V271.704H101.87v0.211H64.147v37.597h37.722V724.89h113.042l375.392-452.975z" /></svg>